<svg width="31" height="32" viewBox="0 0 31 32" fill="none" xmlns="http://www.w3.org/2000/svg">
<g filter="url(#filter0_d_117_49)">
<mask id="path-1-inside-1_117_49" fill="white">
<path fill-rule="evenodd" clip-rule="evenodd" d="M10.6722 23.4815L26.5185 23.4815L19.8464 16.8093L4.00002 16.8093L10.6722 23.4815ZM19.8464 16.8093L19.8464 0.962961L26.5186 7.63511L26.5186 23.4815L19.8464 16.8093Z"/>
</mask>
<path fill-rule="evenodd" clip-rule="evenodd" d="M10.6722 23.4815L26.5185 23.4815L19.8464 16.8093L4.00002 16.8093L10.6722 23.4815ZM19.8464 16.8093L19.8464 0.962961L26.5186 7.63511L26.5186 23.4815L19.8464 16.8093Z" fill="black"/>
<path d="M26.5185 23.4815V24.4815H28.9328L27.2256 22.7744L26.5185 23.4815ZM10.6722 23.4815L9.96507 24.1886L10.258 24.4815H10.6722V23.4815ZM19.8464 16.8093L20.5535 16.1022L20.2606 15.8093H19.8464V16.8093ZM4.00002 16.8093V15.8093H1.58581L3.29291 17.5164L4.00002 16.8093ZM19.8464 0.962961L20.5535 0.255854L18.8464 -1.45125V0.962961H19.8464ZM19.8464 16.8093H18.8464V17.2235L19.1393 17.5164L19.8464 16.8093ZM26.5186 7.63511H27.5186V7.2209L27.2257 6.92801L26.5186 7.63511ZM26.5186 23.4815L25.8114 24.1886L27.5186 25.8957V23.4815H26.5186ZM26.5185 22.4815L10.6722 22.4815V24.4815L26.5185 24.4815V22.4815ZM19.1393 17.5164L25.8114 24.1886L27.2256 22.7744L20.5535 16.1022L19.1393 17.5164ZM4.00002 17.8093L19.8464 17.8093V15.8093L4.00002 15.8093V17.8093ZM11.3793 22.7744L4.70713 16.1022L3.29291 17.5164L9.96507 24.1886L11.3793 22.7744ZM18.8464 0.962961L18.8464 16.8093H20.8464L20.8464 0.962961H18.8464ZM27.2257 6.92801L20.5535 0.255854L19.1393 1.67007L25.8114 8.34222L27.2257 6.92801ZM27.5186 23.4815L27.5186 7.63511H25.5186L25.5186 23.4815H27.5186ZM19.1393 17.5164L25.8114 24.1886L27.2257 22.7744L20.5535 16.1022L19.1393 17.5164Z" fill="black" mask="url(#path-1-inside-1_117_49)"/>
</g>
<defs>
<filter id="filter0_d_117_49" x="0" y="0.962961" width="30.5186" height="30.5185" filterUnits="userSpaceOnUse" color-interpolation-filters="sRGB">
<feFlood flood-opacity="0" result="BackgroundImageFix"/>
<feColorMatrix in="SourceAlpha" type="matrix" values="0 0 0 0 0 0 0 0 0 0 0 0 0 0 0 0 0 0 127 0" result="hardAlpha"/>
<feOffset dy="4"/>
<feGaussianBlur stdDeviation="2"/>
<feComposite in2="hardAlpha" operator="out"/>
<feColorMatrix type="matrix" values="0 0 0 0 0 0 0 0 0 0 0 0 0 0 0 0 0 0 0.25 0"/>
<feBlend mode="normal" in2="BackgroundImageFix" result="effect1_dropShadow_117_49"/>
<feBlend mode="normal" in="SourceGraphic" in2="effect1_dropShadow_117_49" result="shape"/>
</filter>
</defs>
</svg>
